<svg width="30" height="30" viewBox="0 0 30 30" fill="none" xmlns="http://www.w3.org/2000/svg">
<g filter="url(#filter0_d_134_15)">
<path fill-rule="evenodd" clip-rule="evenodd" d="M14.4413 3.82998C14.6075 3.90338 14.7488 4.02351 14.848 4.17575C14.9472 4.32799 15 4.50577 15 4.68748V25.3125C15.0001 25.4942 14.9474 25.6721 14.8483 25.8244C14.7492 25.9768 14.6079 26.097 14.4417 26.1705C14.2755 26.244 14.0914 26.2676 13.9121 26.2384C13.7327 26.2093 13.5656 26.1286 13.4312 26.0062L6.825 20H3.4375C2.85734 20 2.30094 19.7695 1.8907 19.3593C1.48047 18.949 1.25 18.3926 1.25 17.8125V12.1875C1.25 10.98 2.23 9.99998 3.4375 9.99998H6.825L13.4312 3.99373C13.5658 3.87173 13.7328 3.79142 13.9121 3.76258C14.0914 3.73373 14.2753 3.75758 14.4413 3.83123V3.82998ZM13.125 6.80623L7.81875 11.6312C7.64602 11.7882 7.42092 11.8751 7.1875 11.875H3.4375C3.35462 11.875 3.27513 11.9079 3.21653 11.9665C3.15792 12.0251 3.125 12.1046 3.125 12.1875V17.8125C3.125 17.985 3.265 18.125 3.4375 18.125H7.1875C7.42092 18.1248 7.64602 18.2117 7.81875 18.3687L13.125 23.1937V6.80623Z" fill="white"/>
</g>
<g filter="url(#filter1_d_134_15)">
<path d="M23.3975 5.27747C23.5732 5.10191 23.8115 5.0033 24.06 5.0033C24.3084 5.0033 24.5467 5.10191 24.7225 5.27747C30.0925 10.6475 30.0925 19.3525 24.7225 24.7225C24.5447 24.8881 24.3097 24.9782 24.0668 24.9739C23.8239 24.9697 23.5922 24.8713 23.4204 24.6995C23.2487 24.5277 23.1503 24.296 23.146 24.0531C23.1417 23.8102 23.2319 23.5752 23.3975 23.3975C24.5003 22.2948 25.3752 20.9856 25.9721 19.5447C26.569 18.1039 26.8762 16.5596 26.8762 15C26.8762 13.4404 26.569 11.8961 25.9721 10.4552C25.3752 9.01436 24.5003 7.70519 23.3975 6.60247C23.2219 6.42669 23.1233 6.18841 23.1233 5.93997C23.1233 5.69153 23.2219 5.45325 23.3975 5.27747Z" fill="white"/>
</g>
<g filter="url(#filter2_d_134_15)">
<path d="M20.3038 9.69625C20.2167 9.60916 20.1133 9.54008 19.9996 9.49296C19.8858 9.44583 19.7638 9.42157 19.6407 9.42157C19.5175 9.42157 19.3956 9.44583 19.2818 9.49296C19.168 9.54008 19.0646 9.60916 18.9776 9.69625C18.8905 9.78333 18.8214 9.88671 18.7743 10.0005C18.7271 10.1143 18.7029 10.2362 18.7029 10.3594C18.7029 10.4825 18.7271 10.6045 18.7743 10.7183C18.8214 10.832 18.8905 10.9354 18.9776 11.0225C19.4999 11.5448 19.9142 12.1649 20.1969 12.8474C20.4796 13.5298 20.6251 14.2613 20.6251 15C20.6251 15.7387 20.4796 16.4701 20.1969 17.1526C19.9142 17.8351 19.4999 18.4552 18.9776 18.9775C18.812 19.1552 18.7218 19.3903 18.7261 19.6332C18.7304 19.876 18.8288 20.1078 19.0005 20.2795C19.1723 20.4513 19.404 20.5497 19.6469 20.554C19.8898 20.5582 20.1248 20.4681 20.3026 20.3025C21.709 18.896 22.4991 16.9884 22.4991 14.9994C22.4991 13.0103 21.709 11.1028 20.3026 9.69625H20.3038Z" fill="white"/>
</g>
<defs>
<filter id="filter0_d_134_15" x="0.25" y="3.75067" width="15.75" height="24.4999" filterUnits="userSpaceOnUse" color-interpolation-filters="sRGB">
<feFlood flood-opacity="0" result="BackgroundImageFix"/>
<feColorMatrix in="SourceAlpha" type="matrix" values="0 0 0 0 0 0 0 0 0 0 0 0 0 0 0 0 0 0 127 0" result="hardAlpha"/>
<feOffset dy="1"/>
<feGaussianBlur stdDeviation="0.5"/>
<feComposite in2="hardAlpha" operator="out"/>
<feColorMatrix type="matrix" values="0 0 0 0 0 0 0 0 0 0 0 0 0 0 0 0 0 0 0.25 0"/>
<feBlend mode="normal" in2="BackgroundImageFix" result="effect1_dropShadow_134_15"/>
<feBlend mode="normal" in="SourceGraphic" in2="effect1_dropShadow_134_15" result="shape"/>
</filter>
<filter id="filter1_d_134_15" x="22.1233" y="5.0033" width="7.62671" height="21.9708" filterUnits="userSpaceOnUse" color-interpolation-filters="sRGB">
<feFlood flood-opacity="0" result="BackgroundImageFix"/>
<feColorMatrix in="SourceAlpha" type="matrix" values="0 0 0 0 0 0 0 0 0 0 0 0 0 0 0 0 0 0 127 0" result="hardAlpha"/>
<feOffset dy="1"/>
<feGaussianBlur stdDeviation="0.5"/>
<feComposite in2="hardAlpha" operator="out"/>
<feColorMatrix type="matrix" values="0 0 0 0 0 0 0 0 0 0 0 0 0 0 0 0 0 0 0.25 0"/>
<feBlend mode="normal" in2="BackgroundImageFix" result="effect1_dropShadow_134_15"/>
<feBlend mode="normal" in="SourceGraphic" in2="effect1_dropShadow_134_15" result="shape"/>
</filter>
<filter id="filter2_d_134_15" x="17.7029" y="9.42157" width="5.79614" height="13.1326" filterUnits="userSpaceOnUse" color-interpolation-filters="sRGB">
<feFlood flood-opacity="0" result="BackgroundImageFix"/>
<feColorMatrix in="SourceAlpha" type="matrix" values="0 0 0 0 0 0 0 0 0 0 0 0 0 0 0 0 0 0 127 0" result="hardAlpha"/>
<feOffset dy="1"/>
<feGaussianBlur stdDeviation="0.5"/>
<feComposite in2="hardAlpha" operator="out"/>
<feColorMatrix type="matrix" values="0 0 0 0 0 0 0 0 0 0 0 0 0 0 0 0 0 0 0.25 0"/>
<feBlend mode="normal" in2="BackgroundImageFix" result="effect1_dropShadow_134_15"/>
<feBlend mode="normal" in="SourceGraphic" in2="effect1_dropShadow_134_15" result="shape"/>
</filter>
</defs>
</svg>
