<?xml version="1.0" encoding="UTF-8"?><svg id="graphic" xmlns="http://www.w3.org/2000/svg" viewBox="0 0 300 250.64"><defs><style>.cls-1{fill:#333;}.cls-1,.cls-2{font-family:TS3TextSans-Bold, 'TS3 Text Sans';font-size:13px;font-weight:700;}.cls-2,.cls-3{fill:#f3c100;}.cls-4{letter-spacing:-.02em;}.cls-5{letter-spacing:0em;}.cls-3,.cls-6{stroke-width:0px;}.cls-6{fill:#fff;}.cls-7{letter-spacing:-.03em;}</style></defs><polygon class="cls-6" points="198.26 57.93 198.18 58.44 198.18 58.68 198.08 59.05 197.87 59.32 197.48 59.65 197.02 60.02 196.48 60.44 196.23 60.79 196.05 61.27 195.98 61.67 196.1 62.08 196.23 62.47 196.23 62.77 196.03 62.99 195.85 63.2 195.63 63.44 195.38 63.61 195.08 63.68 194.69 63.76 194.53 63.77 194.25 63.82 194.09 63.98 193.48 64.77 192.93 65.46 192.61 65.92 192.4 66.04 192.15 66.09 191.8 66.19 191.07 66.51 190.23 66.86 189.12 67.3 188 67.78 187.28 68.24 186.84 68.51 185.85 68.93 185.3 69.16 185.09 69.29 184.68 69.54 184.34 69.8 183.84 70.18 183.43 70.56 183.02 70.94 182.69 71.2 182.32 71.39 181.97 71.53 181.3 71.66 180.47 71.84 179.63 71.97 178.49 72.17 177.66 72.36 177.09 72.46 176.68 72.58 176.31 72.76 175.78 73.08 175.63 73.2 175.42 73.38 175.03 73.7 174.59 74.05 174.16 74.4 173.1 75.4 172.32 76.09 171.26 77 169.87 78.16 169.02 78.95 167.55 80.23 166.86 80.93 166.37 81.5 165.88 82.16 165.34 82.59 164.21 83.63 163.78 83.97 163.42 84.13 162.71 84.5 161.93 84.91 161.4 84.77 160.92 84.71 160.4 84.98 160.17 85.25 160.11 85.76 159.8 86.37 159.47 86.88 159.1 87.32 158.78 87.96 158.51 88.43 158.09 89.12 156.8 90.71 156.3 91.2 155.76 91.69 155.44 92.14 155.19 92.5 154.84 93.09 154.69 93.45 154.52 93.89 154.29 94.18 153.91 94.51 153.23 95.17 152.32 96.04 151.45 96.92 150.24 98.16 149.71 98.71 148.82 99.38 148.61 99.62 148.48 99.89 148.36 100.2 148.18 100.48 147.78 100.93 147.1 101.75 146.38 102.64 145.71 103.4 145.44 103.69 145.3 103.79 145.14 103.86 144.93 103.93 144.74 103.97 144.45 104.07 144.06 104.18 143.51 104.31 143.24 104.4 142.97 104.55 142.51 104.88 142.09 105.17 141.4 105.59 141.19 105.79 141.04 105.98 140.84 106.29 140.74 106.58 140.62 106.81 140.46 106.99 140.14 107.41 139.75 107.95 139.51 108.3 139.33 108.61 139.22 108.87 139.04 109.39 138.98 109.64 138.91 109.84 138.81 110.01 138.64 110.17 138.37 110.41 138.04 110.78 137.66 111.23 137.37 111.58 137.2 111.82 136.95 112.12 136.76 112.43 136.54 112.68 136.38 112.86 136.25 112.99 136.06 113.03 136 113.04 135.75 113.07 135.47 113.15 135.19 113.27 135.03 113.4 134.79 113.7 134.67 113.93 134.58 114.11 134.49 114.25 134.32 114.45 134.19 114.5 134.06 114.58 133.88 114.64 133.67 114.74 133.46 114.91 133.28 115.07 133.01 115.43 132.71 115.64 132.3 115.92 131.84 116.26 131.41 116.53 131.08 116.78 130.64 117.19 130.28 117.51 130.18 117.75 130.17 117.98 130.15 118.28 130.02 118.37 129.88 118.44 129.74 118.53 129.61 118.67 129.49 118.83 129.33 119.07 129.16 119.13 128.9 119.14 128.64 119.16 128.34 119.25 128.11 119.38 127.97 119.51 127.9 119.61 127.85 119.76 127.78 119.94 127.68 120.06 127.57 120.14 127.42 120.19 127.27 120.36 127.18 120.51 127.14 120.68 127 120.86 126.79 120.91 126.65 120.94 126.64 120.93 126.43 120.88 126.19 120.78 126.19 120.78 126.02 120.89 125.76 121.05 125.44 121.26 124.96 121.53 124.75 121.66 124.66 121.78 124.64 121.96 124.6 122.18 124.49 122.41 124.34 122.6 124.1 122.88 123.8 123.25 123.42 123.7 123.16 124.07 123.04 124.27 122.86 124.44 122.67 124.5 122.46 124.59 122.2 124.76 121.89 125 121.68 125.17 121.54 125.4 121.45 125.64 121.39 125.88 121.29 126.22 121.11 126.63 120.9 127.05 120.71 127.41 120.51 127.71 120.27 127.98 120.04 128.23 119.83 128.44 119.62 128.63 119.37 128.84 119.17 128.99 118.97 129.15 118.82 129.35 118.69 129.58 118.56 129.82 118.44 129.95 118.25 130.06 118 130.2 117.76 130.29 117.64 130.4 117.5 130.57 117.29 130.8 117.1 131.07 116.93 131.28 116.71 131.52 116.35 131.85 115.82 132.29 115.4 132.73 114.85 133.3 114.72 133.5 114.71 133.65 114.76 133.76 114.93 134.03 115 134.21 114.92 134.41 114.83 134.48 114.72 134.57 114.57 134.76 114.49 134.86 114.46 135.02 114.43 135.29 114.34 135.58 114.2 135.66 114.03 135.73 113.87 135.87 113.76 136.01 113.6 136.25 113.4 136.61 113.1 137.1 112.79 137.57 112.41 138.19 112.1 138.73 111.85 139.27 111.77 139.39 111.76 139.59 111.77 139.87 111.86 140.12 111.82 140.3 111.58 140.49 111.48 140.62 111.46 140.81 111.46 141.06 111.54 141.38 111.61 141.76 111.45 141.97 111.29 142.2 111.05 142.43 110.91 142.6 110.61 142.89 110.65 143 110.83 143.44 110.87 143.71 110.8 143.97 110.73 144.14 110.63 144.28 110.41 144.42 110.15 144.54 109.93 144.64 109.74 144.66 109.73 144.66 109.58 144.63 109.35 144.48 109.14 144.35 109.13 144.35 108.95 144.33 108.78 144.37 108.62 144.48 108.45 144.74 108.31 145 108.23 145.28 108.16 145.6 108.11 145.92 108.08 146.15 108.02 146.43 107.86 146.75 107.73 147.41 107.64 148.07 107.61 148.48 107.58 148.75 107.64 149.26 107.79 150.11 107.89 151 108.04 151.94 108.16 152.95 108.24 154.07 108.29 154.96 108.58 157.29 108.69 158.76 108.83 159.58 109.06 160.98 109.17 161.72 109.32 162.73 109.59 164.36 109.88 166.23 110.17 168.3 110.24 169.12 110.39 170.56 110.69 172.03 110.83 173.32 110.97 174.24 111.12 175.94 111.26 176.85 111.48 178.47 111.52 179.28 111.38 179.83 111.22 180.39 110.98 180.91 110.81 181.48 110.66 181.82 110.59 182.21 110.25 182.86 110.06 183.57 109.83 184.45 109.18 186.14 108.4 187.59 108.15 187.93 107.29 188.43 106.09 188.97 105.21 189.56 104.73 189.88 104.21 190.18 103.17 190.78 102.43 191.18 99.49 192.91 98.11 193.73 97.08 194.27 96.94 194.65 96.76 195.13 96.51 195.79 96.33 196.13 96 196.65 95.67 197.23 95.28 197.93 94.74 198.96 94.39 199.62 94.11 200.16 93.76 200.59 93.35 201.17 92.88 201.72 92.41 202.4 92.03 202.86 91.6 203.41 91.3 203.7 91.19 203.83 90.62 204.35 90.21 204.75 89.79 205.15 89.16 205.71 88.59 206.11 88.07 206.57 87.6 206.97 87.03 207.47 86.13 208.22 85.31 208.7 84.88 208.93 84.25 209.21 83.38 209.59 82.49 210.02 81.48 210.34 80.77 210.68 79.92 211.26 79.07 211.84 76.86 212.97 75.32 213.76 73.83 214.5 73.25 214.99 72.92 215.33 72.1 216.29 71.46 217.2 70.57 218.28 70.05 218.93 69.18 219.75 68.44 220.5 67.87 221.19 67.57 221.32 65.94 222.55 65.59 222.82 64.72 223.63 62.84 225.36 61.77 226.23 61.38 225.23 61.08 223.83 61.07 223.82 60.95 223.49 60.66 222.56 60.21 221.03 59.52 218.94 58.91 216.97 58.19 214.38 57.76 213.24 57.37 211.98 57.18 211.25 56.01 207.69 55.61 206.29 54.97 204.12 53.85 200.47 52.25 195.15 52.17 194.68 51.16 191.55 50.13 188.37 49.47 186.43 49.22 185.44 48.99 184.74 48.78 184.51 48.62 184.46 48.61 184.46 48.05 184.44 46.99 184.32 46.99 184.32 46.81 184.16 45.83 182.18 45.52 181.48 43.97 178.44 42.73 176.21 41.41 173.58 40.05 171.25 38.96 169.46 39.23 169.23 39.42 169.07 39.54 169 40.05 168.53 40.55 168.02 41.06 167.54 41.65 167.01 42.07 166.59 42.24 166.47 42.42 166.37 42.57 166.21 42.7 166.04 42.87 165.85 43.15 165.63 43.49 165.32 43.82 165.04 44.13 164.77 44.37 164.48 44.52 164.26 44.87 163.94 45.43 163.36 45.86 162.89 46.25 162.5 46.61 162.16 46.89 161.88 47.19 161.66 47.51 161.39 47.71 161.14 48.01 160.84 48.42 160.44 48.85 160 49.43 159.4 49.91 158.92 50.24 158.61 50.62 158.2 50.85 157.98 51.06 157.72 51.58 157.27 51.79 157.06 51.91 156.94 52.22 156.62 52.43 156.37 52.66 156.19 53.24 155.74 53.78 155.16 54.56 154.38 55.51 153.46 56.48 152.32 57.53 151.28 58.33 150.53 58.86 149.91 59.65 149.08 60.2 148.46 60.42 148.27 60.67 148.06 60.89 147.9 61.16 147.71 61.46 147.46 61.85 147.1 62.09 146.81 62.34 146.56 62.81 146.07 63.02 145.82 63.27 145.64 63.8 145.14 64.19 144.77 64.48 144.45 64.76 144.13 65.27 143.7 65.92 143.06 66.16 142.82 66.56 142.17 67.21 141.32 67.68 140.76 68.16 140.19 68.72 139.57 69.65 138.32 70.05 137.87 70.29 137.54 70.56 137.16 70.77 136.96 71.07 136.77 71.42 136.45 71.83 136.12 72.15 135.85 72.55 135.49 72.67 135.27 72.87 135.04 73.21 134.74 73.62 134.29 74.06 133.79 74.3 133.55 74.43 133.37 74.58 133.17 74.98 132.82 75.28 132.51 75.56 132.24 75.73 132.02 75.91 131.86 76.1 131.68 76.27 131.46 76.31 131.41 76.39 131.26 76.52 131.07 76.76 130.83 77 130.64 77.33 130.39 77.78 130.03 78.16 129.7 78.46 129.45 78.63 129.32 78.86 129.16 79.13 128.94 79.53 128.68 79.89 128.45 80.19 128.22 80.45 127.95 80.98 127.44 81.27 127.11 81.66 126.72 82.07 126.3 82.53 125.79 83.26 125.03 83.99 124.19 84.63 123.48 85.25 122.88 86.33 122.02 87.04 121.3 87.61 120.78 88.23 120.15 88.83 119.51 89.55 118.79 90.13 118.23 90.43 117.91 90.74 117.65 91.06 117.39 91.4 117.08 91.77 116.62 92.18 116.17 92.62 115.68 93.48 114.77 94.01 114.27 94.51 113.72 94.68 113.52 94.83 113.25 94.98 113.09 95.22 112.88 95.51 112.55 96.08 111.93 96.67 111.27 97.25 110.65 97.65 110.18 98 109.74 98.44 109.2 98.87 108.74 99.32 108.21 99.55 107.86 99.94 107.4 100.42 106.82 100.96 106.27 101.27 105.92 101.4 105.64 102.08 104.76 102.48 104.31 102.93 103.78 103.6 103.01 104.66 101.67 105.46 100.72 105.99 100.15 106.39 99.75 106.5 99.5 106.68 99.29 106.98 98.96 107.18 98.65 107.47 98.32 107.74 98 108.27 97.31 108.62 96.78 109.16 96.06 109.59 95.55 109.9 95.16 110.11 94.92 110.38 94.67 110.62 94.48 110.93 94.18 111.27 93.79 111.77 93.2 112.32 92.53 112.79 92.07 113.09 91.64 113.24 91.42 113.59 90.93 114.02 90.44 114.6 89.75 115.23 88.96 115.79 88.35 116.71 87.22 117.19 86.68 117.42 86.33 117.7 85.9 118.35 85.18 118.88 84.48 119.3 83.96 119.65 83.59 120.39 82.72 120.91 82 121.57 81.26 122.1 80.58 122.7 79.89 123.58 78.82 124.23 77.97 124.73 77.38 125.39 76.62 125.97 75.98 126.22 75.71 126.7 75.24 127.29 74.68 127.86 74 128.2 73.58 128.57 73.18 128.96 72.6 129.29 72.2 129.82 71.63 130.23 71.1 130.74 70.43 131.46 69.53 132.21 68.7 132.65 68.02 133.27 67.18 133.7 66.53 134.28 66 134.48 65.74 134.66 65.55 134.78 65.4 134.83 65.13 135.23 64.66 135.76 63.87 136.38 63.03 136.75 62.51 136.96 62.09 137.3 61.58 137.54 61.11 137.71 60.87 137.85 60.58 137.85 60.32 137.72 60.14 137.49 59.92 137.33 59.69 137.32 59.69 137.14 59.58 137 59.48 136.77 59.22 136.66 59 136.57 58.63 136.72 58.46 136.8 58.36 137.06 57.98 137.12 57.88 137.16 57.65 137.24 57.52 137.33 57.49 137.39 57.47 137.59 57.24 137.83 56.97 138.08 56.77 138.17 56.86 137.92 57.18 137.57 57.57 137.37 57.76 137.28 57.84 137.28 57.84 137.24 58.06 137.24 58.06 137.07 58.32 137.07 58.32 136.84 58.59 136.8 58.64 136.79 58.85 136.9 59.15 137.09 59.35 137.09 59.35 137.44 59.61 137.45 59.61 137.69 59.49 137.7 59.49 137.96 59.66 138.26 59.83 138.58 59.87 138.59 59.87 138.77 59.8 138.8 59.58 138.8 59.43 138.98 59.37 139.2 59.25 139.45 59.08 139.74 58.92 139.83 58.77 139.83 58.76 139.73 58.63 139.72 58.62 139.65 58.52 139.34 58.26 139.09 58.06 138.79 57.83 138.77 57.82 138.64 57.62 138.59 57.55 138.66 57.5 138.89 57.73 138.89 57.73 139.05 57.89 139.14 57.94 139.28 58.04 139.51 58.26 139.67 58.28 140.18 58.07 140.38 57.95 140.53 57.8 140.53 57.8 140.66 57.75 140.99 57.22 141.86 56.06 142.16 55.62 142.29 55.43 142.64 55.08 143.21 54.38 143.8 53.48 144.58 52.54 145.57 51.34 146.51 50.08 146.94 49.66 147.17 49.43 147.35 49.22 147.47 49.09 147.96 48.37 148.46 47.71 148.53 47.58 148.62 47.41 148.74 47.22 148.96 46.94 149.04 46.84 149.36 46.43 149.66 46.07 149.69 46.04 150.06 45.63 150.34 45.14 150.55 44.78 150.78 44.46 151.15 44.04 151.5 43.51 152.32 42.31 153.03 41.22 153.1 41.12 153.27 40.88 153.36 40.76 153.76 40.22 154.22 39.55 155.12 38.29 155.74 37.31 157.05 35.32 158.04 33.83 158.95 32.38 159.11 32.13 159.35 31.76 159.94 30.81 160.48 30.01 161.06 29.22 161.47 28.6 161.91 27.95 162.22 27.43 162.49 27.01 162.96 26.39 164.07 24.65 164.34 24.18 164.65 23.83 165.16 22.94 165.92 21.67 166.47 20.8 166.47 20.8 167.48 21.31 168.36 22.04 169.47 22.93 170.47 23.83 172.22 25.26 173.18 26 174.12 26.87 174.85 27.44 175.7 28.13 176.85 29.08 178.21 30.16 179.74 31.45 181.1 32.54 182.05 33.28 183.33 34.35 184.62 35.48 185.87 36.46 186.83 37.27 188.01 38.28 189.12 39.27 190.38 40.36 191.15 40.86 191.59 41.15 191.93 41.4 192.39 41.89 193.15 42.58 194.45 43.58 194.77 43.87 195.01 44.18 195.21 44.58 195.35 44.77 195.62 44.96 196.16 45.43 196.58 45.75 196.82 45.92 196.98 46.18 197.19 46.38 197.5 46.65 198.21 47.17 199.07 47.75 199.88 48.27 200.41 48.75 200.73 49.01 201.75 49.81 202.08 50.11 202.23 50.52 202.27 50.95 202.2 51.29 202.03 51.85 201.87 52.54 201.74 53.11 201.7 53.49 201.69 53.89 201.56 54.33 201.3 54.88 200.96 55.31 200.51 55.83 200.32 56.02 199.78 56.4 199.25 56.84 198.64 57.4 198.34 57.7 198.26 57.93"/><text class="cls-2" transform="translate(59.93 92.75)"><tspan x="0" y="0">a</tspan><tspan class="cls-7" x="6.72" y="0">l</tspan><tspan class="cls-5" x="10.36" y="0">-</tspan><tspan x="15.26" y="0">Zah</tspan><tspan class="cls-4" x="37.02" y="0">r</tspan><tspan x="41.94" y="0">a</tspan></text><text class="cls-1" transform="translate(60.46 174.45)"><tspan x="0" y="0">Gaza</tspan><tspan x="0" y="17">Strip</tspan></text><circle class="cls-3" cx="122.19" cy="87.75" r="5"/></svg>