<?xml version="1.0" encoding="UTF-8"?><svg id="graphic" xmlns="http://www.w3.org/2000/svg" viewBox="0 0 300 250.64"><defs><style>.cls-1{fill:#333;}.cls-1,.cls-2{font-family:TS3TextSans-Bold, 'TS3 Text Sans';font-size:13px;font-weight:700;}.cls-2,.cls-3{fill:#f3c100;}.cls-3,.cls-4{stroke-width:0px;}.cls-4{fill:#fff;}</style></defs><polygon class="cls-4" points="198.26 69.17 198.18 69.68 198.18 69.93 198.08 70.29 197.87 70.56 197.48 70.9 197.02 71.26 196.48 71.69 196.23 72.04 196.05 72.52 195.98 72.92 196.1 73.32 196.23 73.72 196.23 74.02 196.03 74.23 195.85 74.45 195.63 74.68 195.38 74.85 195.08 74.93 194.69 75.01 194.53 75.01 194.25 75.07 194.09 75.23 193.48 76.02 192.93 76.71 192.61 77.16 192.4 77.29 192.15 77.33 191.8 77.44 191.07 77.75 190.23 78.1 189.12 78.54 188 79.03 187.28 79.49 186.84 79.75 185.85 80.18 185.3 80.41 185.09 80.54 184.68 80.78 184.34 81.04 183.84 81.43 183.43 81.8 183.02 82.18 182.69 82.45 182.32 82.64 181.97 82.77 181.3 82.91 180.47 83.08 179.63 83.22 178.49 83.41 177.66 83.6 177.09 83.71 176.68 83.82 176.31 84.01 175.78 84.32 175.63 84.45 175.42 84.63 175.03 84.94 174.59 85.29 174.16 85.65 173.1 86.65 172.32 87.34 171.26 88.25 169.87 89.41 169.02 90.2 167.55 91.47 166.86 92.18 166.37 92.75 165.88 93.4 165.34 93.84 164.21 94.88 163.78 95.22 163.42 95.37 162.71 95.74 161.93 96.16 161.4 96.02 160.92 95.96 160.4 96.23 160.17 96.5 160.11 97.01 159.8 97.62 159.47 98.13 159.1 98.56 158.78 99.2 158.51 99.67 158.09 100.37 156.8 101.95 156.3 102.45 155.76 102.93 155.44 103.38 155.19 103.74 154.84 104.33 154.69 104.7 154.52 105.14 154.29 105.42 153.91 105.75 153.23 106.42 152.32 107.28 151.45 108.17 150.24 109.4 149.71 109.95 148.82 110.63 148.61 110.86 148.48 111.14 148.36 111.44 148.18 111.73 147.78 112.17 147.1 113 146.38 113.88 145.71 114.64 145.44 114.94 145.3 115.04 145.14 115.1 144.93 115.17 144.74 115.22 144.45 115.31 144.06 115.42 143.51 115.55 143.24 115.65 142.97 115.79 142.51 116.13 142.09 116.41 141.4 116.83 141.19 117.03 141.04 117.23 140.84 117.54 140.74 117.82 140.62 118.05 140.46 118.23 140.14 118.66 139.75 119.19 139.51 119.54 139.33 119.85 139.22 120.11 139.04 120.63 138.98 120.89 138.91 121.08 138.81 121.25 138.64 121.41 138.37 121.65 138.04 122.02 137.66 122.48 137.37 122.82 137.2 123.07 136.95 123.37 136.76 123.67 136.54 123.92 136.38 124.11 136.25 124.24 136.06 124.28 136 124.28 135.75 124.31 135.47 124.39 135.19 124.52 135.03 124.64 134.79 124.95 134.67 125.17 134.58 125.35 134.49 125.5 134.32 125.69 134.19 125.74 134.06 125.83 133.88 125.89 133.67 125.99 133.46 126.16 133.28 126.32 133.01 126.67 132.71 126.89 132.3 127.17 131.84 127.51 131.41 127.78 131.08 128.03 130.64 128.44 130.28 128.76 130.18 128.99 130.17 129.22 130.15 129.53 130.02 129.61 129.88 129.68 129.74 129.77 129.61 129.92 129.49 130.08 129.33 130.31 129.16 130.38 128.9 130.38 128.64 130.4 128.34 130.5 128.11 130.62 127.97 130.75 127.9 130.86 127.85 131 127.78 131.19 127.68 131.3 127.57 131.38 127.42 131.44 127.27 131.6 127.18 131.75 127.14 131.93 127 132.1 126.79 132.15 126.65 132.18 126.64 132.18 126.43 132.12 126.19 132.03 126.19 132.03 126.02 132.13 125.76 132.29 125.44 132.51 124.96 132.78 124.75 132.9 124.66 133.02 124.64 133.21 124.6 133.42 124.49 133.66 124.34 133.85 124.1 134.13 123.8 134.5 123.42 134.94 123.16 135.31 123.04 135.51 122.86 135.69 122.67 135.75 122.46 135.83 122.2 136 121.89 136.25 121.68 136.42 121.54 136.65 121.45 136.88 121.39 137.13 121.29 137.47 121.11 137.88 120.9 138.3 120.71 138.66 120.51 138.96 120.27 139.23 120.04 139.47 119.83 139.68 119.62 139.87 119.37 140.08 119.17 140.24 118.97 140.4 118.82 140.6 118.69 140.83 118.56 141.06 118.44 141.19 118.25 141.3 118 141.44 117.76 141.54 117.64 141.64 117.5 141.82 117.29 142.05 117.1 142.32 116.93 142.53 116.71 142.76 116.35 143.09 115.82 143.53 115.4 143.97 114.85 144.54 114.72 144.75 114.71 144.9 114.76 145.01 114.93 145.27 115 145.46 114.92 145.65 114.83 145.73 114.72 145.82 114.57 146 114.49 146.11 114.46 146.27 114.43 146.54 114.34 146.83 114.2 146.91 114.03 146.98 113.87 147.11 113.76 147.26 113.6 147.5 113.4 147.86 113.1 148.35 112.79 148.81 112.41 149.44 112.1 149.97 111.85 150.51 111.77 150.64 111.76 150.83 111.77 151.11 111.86 151.37 111.82 151.55 111.58 151.73 111.48 151.86 111.46 152.06 111.46 152.31 111.54 152.63 111.61 153 111.45 153.22 111.29 153.45 111.05 153.68 110.91 153.84 110.61 154.13 110.65 154.24 110.83 154.68 110.87 154.96 110.8 155.22 110.73 155.39 110.63 155.53 110.41 155.67 110.15 155.78 109.93 155.89 109.74 155.9 109.73 155.9 109.58 155.87 109.35 155.72 109.14 155.6 109.13 155.6 108.95 155.57 108.78 155.62 108.62 155.72 108.45 155.99 108.31 156.24 108.23 156.53 108.16 156.85 108.11 157.16 108.08 157.39 108.02 157.67 107.86 158 107.73 158.65 107.64 159.32 107.61 159.72 107.58 159.99 107.64 160.5 107.79 161.36 107.89 162.25 108.04 163.19 108.16 164.19 108.24 165.32 108.29 166.21 108.58 168.53 108.69 170 108.83 170.83 109.06 172.23 109.17 172.97 109.32 173.97 109.59 175.6 109.88 177.48 110.17 179.54 110.24 180.37 110.39 181.8 110.69 183.27 110.83 184.57 110.97 185.49 111.12 187.18 111.26 188.1 111.48 189.72 111.52 190.52 111.38 191.08 111.22 191.63 110.98 192.15 110.81 192.72 110.66 193.07 110.59 193.46 110.25 194.11 110.06 194.82 109.83 195.69 109.18 197.39 108.4 198.84 108.15 199.17 107.29 199.67 106.09 200.22 105.21 200.8 104.73 201.12 104.21 201.42 103.17 202.03 102.43 202.42 99.49 204.16 98.11 204.98 97.08 205.51 96.94 205.9 96.76 206.38 96.51 207.04 96.33 207.38 96 207.9 95.67 208.48 95.28 209.17 94.74 210.21 94.39 210.87 94.11 211.41 93.76 211.83 93.35 212.41 92.88 212.97 92.41 213.65 92.03 214.11 91.6 214.65 91.3 214.94 91.19 215.07 90.62 215.59 90.21 215.99 89.79 216.39 89.16 216.96 88.59 217.36 88.07 217.82 87.6 218.22 87.03 218.72 86.13 219.46 85.31 219.95 84.88 220.17 84.25 220.45 83.38 220.84 82.49 221.26 81.48 221.59 80.77 221.93 79.92 222.5 79.07 223.08 76.86 224.22 75.32 225.01 73.83 225.74 73.25 226.24 72.92 226.57 72.1 227.54 71.46 228.45 70.57 229.52 70.05 230.18 69.18 230.99 68.44 231.75 67.87 232.43 67.57 232.57 65.94 233.79 65.59 234.06 64.72 234.88 62.84 236.61 61.77 237.48 61.38 236.48 61.08 235.07 61.07 235.07 60.95 234.73 60.66 233.8 60.21 232.28 59.52 230.18 58.91 228.22 58.19 225.63 57.76 224.49 57.37 223.22 57.18 222.5 56.01 218.93 55.61 217.54 54.97 215.36 53.85 211.71 52.25 206.39 52.17 205.93 51.16 202.79 50.13 199.61 49.47 197.67 49.22 196.69 48.99 195.99 48.78 195.76 48.62 195.7 48.61 195.7 48.05 195.68 46.99 195.56 46.99 195.56 46.81 195.41 45.83 193.43 45.52 192.73 43.97 189.68 42.73 187.46 41.41 184.82 40.05 182.5 38.96 180.71 39.23 180.47 39.42 180.32 39.54 180.25 40.05 179.77 40.55 179.27 41.06 178.79 41.65 178.25 42.07 177.83 42.24 177.72 42.42 177.62 42.57 177.46 42.7 177.28 42.87 177.1 43.15 176.88 43.49 176.56 43.82 176.29 44.13 176.01 44.37 175.72 44.52 175.51 44.87 175.19 45.43 174.61 45.86 174.14 46.25 173.75 46.61 173.4 46.89 173.13 47.19 172.91 47.51 172.63 47.71 172.39 48.01 172.09 48.42 171.68 48.85 171.25 49.43 170.64 49.91 170.16 50.24 169.86 50.62 169.44 50.85 169.22 51.06 168.96 51.58 168.52 51.79 168.3 51.91 168.18 52.22 167.87 52.43 167.62 52.66 167.43 53.24 166.98 53.78 166.41 54.56 165.63 55.51 164.7 56.48 163.56 57.53 162.52 58.33 161.77 58.86 161.15 59.65 160.33 60.2 159.71 60.42 159.52 60.67 159.3 60.89 159.14 61.16 158.95 61.46 158.71 61.85 158.34 62.09 158.05 62.34 157.81 62.81 157.31 63.02 157.07 63.27 156.88 63.8 156.39 64.19 156.01 64.48 155.7 64.76 155.38 65.27 154.94 65.92 154.31 66.16 154.06 66.56 153.42 67.21 152.56 67.68 152 68.16 151.44 68.72 150.82 69.65 149.56 70.05 149.12 70.29 148.78 70.56 148.41 70.77 148.21 71.07 148.02 71.42 147.7 71.83 147.37 72.15 147.1 72.55 146.74 72.67 146.52 72.87 146.29 73.21 145.98 73.62 145.54 74.06 145.03 74.3 144.8 74.43 144.61 74.58 144.41 74.98 144.06 75.28 143.76 75.56 143.48 75.73 143.27 75.91 143.11 76.1 142.92 76.27 142.71 76.31 142.65 76.39 142.5 76.52 142.32 76.76 142.07 77 141.88 77.33 141.64 77.78 141.27 78.16 140.94 78.46 140.69 78.63 140.56 78.86 140.4 79.13 140.19 79.53 139.93 79.89 139.7 80.19 139.47 80.45 139.19 80.98 138.69 81.27 138.35 81.66 137.96 82.07 137.55 82.53 137.04 83.26 136.27 83.99 135.44 84.63 134.73 85.25 134.12 86.33 133.27 87.04 132.54 87.61 132.03 88.23 131.39 88.83 130.76 89.55 130.04 90.13 129.47 90.43 129.15 90.74 128.89 91.06 128.63 91.4 128.33 91.77 127.87 92.18 127.42 92.62 126.93 93.48 126.02 94.01 125.52 94.51 124.97 94.68 124.76 94.83 124.49 94.98 124.33 95.22 124.13 95.51 123.8 96.08 123.18 96.67 122.51 97.25 121.89 97.65 121.43 98 120.98 98.44 120.45 98.87 119.98 99.32 119.45 99.55 119.1 99.94 118.64 100.42 118.07 100.96 117.52 101.27 117.17 101.4 116.88 102.08 116 102.48 115.56 102.93 115.02 103.6 114.26 104.66 112.92 105.46 111.96 105.99 111.4 106.39 110.99 106.5 110.75 106.68 110.53 106.98 110.2 107.18 109.9 107.47 109.57 107.74 109.25 108.27 108.56 108.62 108.03 109.16 107.3 109.59 106.8 109.9 106.41 110.11 106.16 110.38 105.92 110.62 105.73 110.93 105.43 111.27 105.04 111.77 104.44 112.32 103.78 112.79 103.32 113.09 102.89 113.24 102.67 113.59 102.18 114.02 101.69 114.6 100.99 115.23 100.2 115.79 99.59 116.71 98.47 117.19 97.92 117.42 97.57 117.7 97.14 118.35 96.42 118.88 95.73 119.3 95.21 119.65 94.83 120.39 93.97 120.91 93.24 121.57 92.51 122.1 91.83 122.7 91.14 123.58 90.07 124.23 89.22 124.73 88.63 125.39 87.86 125.97 87.23 126.22 86.95 126.7 86.49 127.29 85.92 127.86 85.25 128.2 84.83 128.57 84.42 128.96 83.85 129.29 83.44 129.82 82.87 130.23 82.34 130.74 81.67 131.46 80.78 132.21 79.94 132.65 79.26 133.27 78.43 133.7 77.78 134.28 77.24 134.48 76.98 134.66 76.79 134.78 76.65 134.83 76.38 135.23 75.9 135.76 75.11 136.38 74.28 136.75 73.76 136.96 73.34 137.3 72.82 137.54 72.36 137.71 72.11 137.85 71.83 137.85 71.57 137.72 71.38 137.49 71.17 137.33 70.94 137.32 70.94 137.14 70.82 137 70.73 136.77 70.47 136.66 70.24 136.57 69.87 136.72 69.7 136.8 69.6 137.06 69.22 137.12 69.13 137.16 68.9 137.24 68.77 137.33 68.74 137.39 68.72 137.59 68.49 137.83 68.21 138.08 68.01 138.17 68.1 137.92 68.43 137.57 68.82 137.37 69.01 137.28 69.08 137.28 69.08 137.24 69.31 137.24 69.31 137.07 69.57 137.07 69.57 136.84 69.84 136.8 69.88 136.79 70.1 136.9 70.39 137.09 70.6 137.09 70.6 137.44 70.86 137.45 70.86 137.69 70.74 137.7 70.74 137.96 70.91 138.26 71.08 138.58 71.12 138.59 71.12 138.77 71.04 138.8 70.83 138.8 70.67 138.98 70.61 139.2 70.5 139.45 70.32 139.74 70.16 139.83 70.01 139.83 70.01 139.73 69.87 139.72 69.86 139.65 69.77 139.34 69.51 139.09 69.31 138.79 69.08 138.77 69.07 138.64 68.87 138.59 68.79 138.66 68.75 138.89 68.97 138.89 68.97 139.05 69.13 139.14 69.19 139.28 69.28 139.51 69.5 139.67 69.53 140.18 69.31 140.38 69.2 140.53 69.05 140.53 69.05 140.66 69 140.99 68.46 141.86 67.31 142.16 66.87 142.29 66.68 142.64 66.33 143.21 65.62 143.8 64.73 144.58 63.79 145.57 62.59 146.51 61.32 146.94 60.9 147.17 60.67 147.35 60.47 147.47 60.34 147.96 59.62 148.46 58.95 148.53 58.83 148.62 58.66 148.74 58.46 148.96 58.19 149.04 58.09 149.36 57.67 149.66 57.31 149.69 57.28 150.06 56.88 150.34 56.39 150.55 56.02 150.78 55.71 151.15 55.29 151.5 54.75 152.32 53.56 153.03 52.46 153.1 52.37 153.27 52.13 153.36 52 153.76 51.47 154.22 50.79 155.12 49.53 155.74 48.55 157.05 46.56 158.04 45.08 158.95 43.62 159.11 43.38 159.35 43 159.94 42.05 160.48 41.26 161.06 40.47 161.47 39.85 161.91 39.2 162.22 38.68 162.49 38.26 162.96 37.64 164.07 35.9 164.34 35.42 164.65 35.08 165.16 34.18 165.92 32.91 166.47 32.05 166.47 32.05 167.48 32.56 168.36 33.29 169.47 34.17 170.47 35.07 172.22 36.51 173.18 37.25 174.12 38.12 174.85 38.69 175.7 39.37 176.85 40.33 178.21 41.41 179.74 42.69 181.1 43.78 182.05 44.52 183.33 45.59 184.62 46.72 185.87 47.7 186.83 48.52 188.01 49.53 189.12 50.51 190.38 51.61 191.15 52.1 191.59 52.4 191.93 52.64 192.39 53.13 193.15 53.83 194.45 54.82 194.77 55.11 195.01 55.42 195.21 55.82 195.35 56.01 195.62 56.21 196.16 56.68 196.58 56.99 196.82 57.17 196.98 57.43 197.19 57.62 197.5 57.89 198.21 58.41 199.07 59 199.88 59.51 200.41 60 200.73 60.25 201.75 61.05 202.08 61.36 202.23 61.76 202.27 62.19 202.2 62.53 202.03 63.1 201.87 63.78 201.74 64.36 201.7 64.74 201.69 65.13 201.56 65.57 201.3 66.13 200.96 66.55 200.51 67.07 200.32 67.26 199.78 67.64 199.25 68.09 198.64 68.65 198.34 68.94 198.26 69.17"/><text class="cls-2" transform="translate(180.02 93.61)"><tspan x="0" y="0">Beit </tspan><tspan x="0" y="17">Hanoun</tspan></text><text class="cls-1" transform="translate(60.46 185.69)"><tspan x="0" y="0">Gaza</tspan><tspan x="0" y="17">Strip</tspan></text><circle class="cls-3" cx="185.03" cy="65.35" r="5"/></svg>