<?xml version="1.0" encoding="UTF-8"?><svg id="graphic" xmlns="http://www.w3.org/2000/svg" viewBox="0 0 300 250.64"><defs><style>.cls-1{fill:#333;}.cls-1,.cls-2{font-family:TS3TextSans-Bold, 'TS3 Text Sans';font-size:13px;font-weight:700;}.cls-2,.cls-3{fill:#f3c100;}.cls-4{letter-spacing:0em;}.cls-5{letter-spacing:-.07em;}.cls-3,.cls-6{stroke-width:0px;}.cls-6{fill:#fff;}</style></defs><polygon class="cls-6" points="198.26 51.88 198.18 52.39 198.18 52.64 198.08 53 197.87 53.27 197.48 53.61 197.02 53.97 196.48 54.4 196.23 54.75 196.05 55.23 195.98 55.63 196.1 56.03 196.23 56.42 196.23 56.72 196.03 56.94 195.85 57.16 195.63 57.39 195.38 57.56 195.08 57.63 194.69 57.72 194.53 57.72 194.25 57.77 194.09 57.93 193.48 58.73 192.93 59.42 192.61 59.87 192.4 60 192.15 60.04 191.8 60.14 191.07 60.46 190.23 60.81 189.12 61.25 188 61.74 187.28 62.2 186.84 62.46 185.85 62.88 185.3 63.12 185.09 63.24 184.68 63.49 184.34 63.75 183.84 64.14 183.43 64.51 183.02 64.89 182.69 65.15 182.32 65.35 181.97 65.48 181.3 65.61 180.47 65.79 179.63 65.93 178.49 66.12 177.66 66.31 177.09 66.42 176.68 66.53 176.31 66.72 175.78 67.03 175.63 67.16 175.42 67.33 175.03 67.65 174.59 68 174.16 68.35 173.1 69.36 172.32 70.05 171.26 70.96 169.87 72.11 169.02 72.91 167.55 74.18 166.86 74.89 166.37 75.45 165.88 76.11 165.34 76.54 164.21 77.58 163.78 77.93 163.42 78.08 162.71 78.45 161.93 78.86 161.4 78.73 160.92 78.67 160.4 78.94 160.17 79.21 160.11 79.72 159.8 80.33 159.47 80.83 159.1 81.27 158.78 81.91 158.51 82.38 158.09 83.08 156.8 84.66 156.3 85.15 155.76 85.64 155.44 86.09 155.19 86.45 154.84 87.04 154.69 87.41 154.52 87.84 154.29 88.13 153.91 88.46 153.23 89.13 152.32 89.99 151.45 90.87 150.24 92.11 149.71 92.66 148.82 93.34 148.61 93.57 148.48 93.84 148.36 94.15 148.18 94.43 147.78 94.88 147.1 95.71 146.38 96.59 145.71 97.35 145.44 97.65 145.3 97.75 145.14 97.81 144.93 97.88 144.74 97.93 144.45 98.02 144.06 98.13 143.51 98.26 143.24 98.35 142.97 98.5 142.51 98.84 142.09 99.12 141.4 99.54 141.19 99.74 141.04 99.94 140.84 100.24 140.74 100.53 140.62 100.76 140.46 100.94 140.14 101.37 139.75 101.9 139.51 102.25 139.33 102.56 139.22 102.82 139.04 103.34 138.98 103.6 138.91 103.79 138.81 103.96 138.64 104.12 138.37 104.36 138.04 104.73 137.66 105.19 137.37 105.53 137.2 105.78 136.95 106.08 136.76 106.38 136.54 106.63 136.38 106.82 136.25 106.94 136.06 106.98 136 106.99 135.75 107.02 135.47 107.1 135.19 107.23 135.03 107.35 134.79 107.65 134.67 107.88 134.58 108.06 134.49 108.2 134.32 108.4 134.19 108.45 134.06 108.53 133.88 108.59 133.67 108.7 133.46 108.87 133.28 109.03 133.01 109.38 132.71 109.59 132.3 109.87 131.84 110.21 131.41 110.48 131.08 110.74 130.64 111.14 130.28 111.46 130.18 111.7 130.17 111.93 130.15 112.24 130.02 112.32 129.88 112.39 129.74 112.48 129.61 112.63 129.49 112.79 129.33 113.02 129.16 113.09 128.9 113.09 128.64 113.11 128.34 113.2 128.11 113.33 127.97 113.46 127.9 113.57 127.85 113.71 127.78 113.9 127.68 114.01 127.57 114.09 127.42 114.15 127.27 114.31 127.18 114.46 127.14 114.64 127 114.81 126.79 114.86 126.65 114.89 126.64 114.89 126.43 114.83 126.19 114.73 126.19 114.74 126.02 114.84 125.76 115 125.44 115.21 124.96 115.48 124.75 115.61 124.66 115.73 124.64 115.92 124.6 116.13 124.49 116.36 124.34 116.55 124.1 116.83 123.8 117.21 123.42 117.65 123.16 118.02 123.04 118.22 122.86 118.4 122.67 118.46 122.46 118.54 122.2 118.71 121.89 118.95 121.68 119.12 121.54 119.36 121.45 119.59 121.39 119.83 121.29 120.17 121.11 120.58 120.9 121 120.71 121.37 120.51 121.66 120.27 121.93 120.04 122.18 119.83 122.39 119.62 122.58 119.37 122.79 119.17 122.94 118.97 123.1 118.82 123.31 118.69 123.54 118.56 123.77 118.44 123.9 118.25 124.01 118 124.15 117.76 124.24 117.64 124.35 117.5 124.52 117.29 124.76 117.1 125.02 116.93 125.24 116.71 125.47 116.35 125.8 115.82 126.24 115.4 126.68 114.85 127.25 114.72 127.46 114.71 127.6 114.76 127.72 114.93 127.98 115 128.17 114.92 128.36 114.83 128.44 114.72 128.53 114.57 128.71 114.49 128.81 114.46 128.98 114.43 129.25 114.34 129.54 114.2 129.62 114.03 129.69 113.87 129.82 113.76 129.96 113.6 130.2 113.4 130.56 113.1 131.05 112.79 131.52 112.41 132.15 112.1 132.68 111.85 133.22 111.77 133.34 111.76 133.54 111.77 133.82 111.86 134.08 111.82 134.25 111.58 134.44 111.48 134.57 111.46 134.77 111.46 135.01 111.54 135.33 111.61 135.71 111.45 135.92 111.29 136.16 111.05 136.39 110.91 136.55 110.61 136.84 110.65 136.95 110.83 137.39 110.87 137.67 110.8 137.92 110.73 138.09 110.63 138.24 110.41 138.38 110.15 138.49 109.93 138.59 109.74 138.61 109.73 138.61 109.58 138.58 109.35 138.43 109.14 138.31 109.13 138.31 108.95 138.28 108.78 138.32 108.62 138.43 108.45 138.7 108.31 138.95 108.23 139.23 108.16 139.56 108.11 139.87 108.08 140.1 108.02 140.38 107.86 140.71 107.73 141.36 107.64 142.02 107.61 142.43 107.58 142.7 107.64 143.21 107.79 144.07 107.89 144.96 108.04 145.89 108.16 146.9 108.24 148.03 108.29 148.91 108.58 151.24 108.69 152.71 108.83 153.53 109.06 154.93 109.17 155.68 109.32 156.68 109.59 158.31 109.88 160.19 110.17 162.25 110.24 163.08 110.39 164.51 110.69 165.98 110.83 167.28 110.97 168.2 111.12 169.89 111.26 170.81 111.48 172.43 111.52 173.23 111.38 173.79 111.22 174.34 110.98 174.86 110.81 175.43 110.66 175.78 110.59 176.17 110.25 176.82 110.06 177.53 109.83 178.4 109.18 180.1 108.4 181.55 108.15 181.88 107.29 182.38 106.09 182.92 105.21 183.51 104.73 183.83 104.21 184.13 103.17 184.74 102.43 185.13 99.49 186.87 98.11 187.69 97.08 188.22 96.94 188.61 96.76 189.08 96.51 189.74 96.33 190.09 96 190.61 95.67 191.18 95.28 191.88 94.74 192.92 94.39 193.57 94.11 194.12 93.76 194.54 93.35 195.12 92.88 195.68 92.41 196.36 92.03 196.82 91.6 197.36 91.3 197.65 91.19 197.78 90.62 198.3 90.21 198.7 89.79 199.1 89.16 199.67 88.59 200.07 88.07 200.53 87.6 200.92 87.03 201.42 86.13 202.17 85.31 202.65 84.88 202.88 84.25 203.16 83.38 203.55 82.49 203.97 81.48 204.29 80.77 204.63 79.92 205.21 79.07 205.79 76.86 206.92 75.32 207.71 73.83 208.45 73.25 208.94 72.92 209.28 72.1 210.24 71.46 211.16 70.57 212.23 70.05 212.88 69.18 213.7 68.44 214.45 67.87 215.14 67.57 215.27 65.94 216.5 65.59 216.77 64.72 217.58 62.84 219.32 61.77 220.19 61.38 219.19 61.08 217.78 61.07 217.77 60.95 217.44 60.66 216.51 60.21 214.98 59.52 212.89 58.91 210.92 58.19 208.34 57.76 207.2 57.37 205.93 57.18 205.21 56.01 201.64 55.61 200.24 54.97 198.07 53.85 194.42 52.25 189.1 52.17 188.63 51.16 185.5 50.13 182.32 49.47 180.38 49.22 179.39 48.99 178.7 48.78 178.46 48.62 178.41 48.61 178.41 48.05 178.39 46.99 178.27 46.99 178.27 46.81 178.12 45.83 176.14 45.52 175.44 43.97 172.39 42.73 170.17 41.41 167.53 40.05 165.21 38.96 163.41 39.23 163.18 39.42 163.02 39.54 162.96 40.05 162.48 40.55 161.97 41.06 161.5 41.65 160.96 42.07 160.54 42.24 160.43 42.42 160.32 42.57 160.16 42.7 159.99 42.87 159.8 43.15 159.59 43.49 159.27 43.82 158.99 44.13 158.72 44.37 158.43 44.52 158.21 44.87 157.9 45.43 157.32 45.86 156.85 46.25 156.46 46.61 156.11 46.89 155.83 47.19 155.62 47.51 155.34 47.71 155.1 48.01 154.79 48.42 154.39 48.85 153.96 49.43 153.35 49.91 152.87 50.24 152.57 50.62 152.15 50.85 151.93 51.06 151.67 51.58 151.22 51.79 151.01 51.91 150.89 52.22 150.57 52.43 150.33 52.66 150.14 53.24 149.69 53.78 149.12 54.56 148.34 55.51 147.41 56.48 146.27 57.53 145.23 58.33 144.48 58.86 143.86 59.65 143.03 60.2 142.41 60.42 142.23 60.67 142.01 60.89 141.85 61.16 141.66 61.46 141.41 61.85 141.05 62.09 140.76 62.34 140.51 62.81 140.02 63.02 139.78 63.27 139.59 63.8 139.1 64.19 138.72 64.48 138.4 64.76 138.09 65.27 137.65 65.92 137.02 66.16 136.77 66.56 136.12 67.21 135.27 67.68 134.71 68.16 134.15 68.72 133.53 69.65 132.27 70.05 131.82 70.29 131.49 70.56 131.12 70.77 130.91 71.07 130.73 71.42 130.41 71.83 130.07 72.15 129.8 72.55 129.44 72.67 129.23 72.87 129 73.21 128.69 73.62 128.24 74.06 127.74 74.3 127.51 74.43 127.32 74.58 127.12 74.98 126.77 75.28 126.47 75.56 126.19 75.73 125.98 75.91 125.82 76.1 125.63 76.27 125.41 76.31 125.36 76.39 125.21 76.52 125.02 76.76 124.78 77 124.59 77.33 124.34 77.78 123.98 78.16 123.65 78.46 123.4 78.63 123.27 78.86 123.11 79.13 122.9 79.53 122.63 79.89 122.41 80.19 122.18 80.45 121.9 80.98 121.39 81.27 121.06 81.66 120.67 82.07 120.25 82.53 119.75 83.26 118.98 83.99 118.14 84.63 117.44 85.25 116.83 86.33 115.97 87.04 115.25 87.61 114.74 88.23 114.1 88.83 113.47 89.55 112.74 90.13 112.18 90.43 111.86 90.74 111.6 91.06 111.34 91.4 111.04 91.77 110.57 92.18 110.13 92.62 109.64 93.48 108.73 94.01 108.22 94.51 107.67 94.68 107.47 94.83 107.2 94.98 107.04 95.22 106.84 95.51 106.5 96.08 105.88 96.67 105.22 97.25 104.6 97.65 104.14 98 103.69 98.44 103.15 98.87 102.69 99.32 102.16 99.55 101.81 99.94 101.35 100.42 100.77 100.96 100.22 101.27 99.88 101.4 99.59 102.08 98.71 102.48 98.26 102.93 97.73 103.6 96.97 104.66 95.62 105.46 94.67 105.99 94.11 106.39 93.7 106.5 93.46 106.68 93.24 106.98 92.91 107.18 92.61 107.47 92.27 107.74 91.96 108.27 91.27 108.62 90.73 109.16 90.01 109.59 89.51 109.9 89.12 110.11 88.87 110.38 88.63 110.62 88.44 110.93 88.13 111.27 87.74 111.77 87.15 112.32 86.49 112.79 86.03 113.09 85.6 113.24 85.38 113.59 84.89 114.02 84.39 114.6 83.7 115.23 82.91 115.79 82.3 116.71 81.18 117.19 80.63 117.42 80.28 117.7 79.85 118.35 79.13 118.88 78.44 119.3 77.92 119.65 77.54 120.39 76.67 120.91 75.95 121.57 75.22 122.1 74.54 122.7 73.84 123.58 72.78 124.23 71.93 124.73 71.33 125.39 70.57 125.97 69.93 126.22 69.66 126.7 69.2 127.29 68.63 127.86 67.95 128.2 67.54 128.57 67.13 128.96 66.55 129.29 66.15 129.82 65.58 130.23 65.05 130.74 64.38 131.46 63.49 132.21 62.65 132.65 61.97 133.27 61.13 133.7 60.48 134.28 59.95 134.48 59.69 134.66 59.5 134.78 59.36 134.83 59.08 135.23 58.61 135.76 57.82 136.38 56.98 136.75 56.47 136.96 56.05 137.3 55.53 137.54 55.07 137.71 54.82 137.85 54.53 137.85 54.28 137.72 54.09 137.49 53.88 137.33 53.65 137.32 53.64 137.14 53.53 137 53.44 136.77 53.18 136.66 52.95 136.57 52.58 136.72 52.41 136.8 52.31 137.06 51.93 137.12 51.84 137.16 51.6 137.24 51.47 137.33 51.45 137.39 51.42 137.59 51.2 137.83 50.92 138.08 50.72 138.17 50.81 137.92 51.14 137.57 51.53 137.37 51.72 137.28 51.79 137.28 51.79 137.24 52.02 137.24 52.02 137.07 52.27 137.07 52.27 136.84 52.54 136.8 52.59 136.79 52.81 136.9 53.1 137.09 53.31 137.09 53.31 137.44 53.56 137.45 53.57 137.69 53.45 137.7 53.44 137.96 53.61 138.26 53.78 138.58 53.82 138.59 53.83 138.77 53.75 138.8 53.54 138.8 53.38 138.98 53.32 139.2 53.2 139.45 53.03 139.74 52.87 139.83 52.72 139.83 52.71 139.73 52.58 139.72 52.57 139.65 52.47 139.34 52.22 139.09 52.02 138.79 51.79 138.77 51.77 138.64 51.58 138.59 51.5 138.66 51.45 138.89 51.68 138.89 51.68 139.05 51.84 139.14 51.9 139.28 51.99 139.51 52.21 139.67 52.24 140.18 52.02 140.38 51.91 140.53 51.76 140.53 51.75 140.66 51.71 140.99 51.17 141.86 50.02 142.16 49.57 142.29 49.38 142.64 49.04 143.21 48.33 143.8 47.43 144.58 46.5 145.57 45.3 146.51 44.03 146.94 43.61 147.17 43.38 147.35 43.17 147.47 43.05 147.96 42.33 148.46 41.66 148.53 41.54 148.62 41.37 148.74 41.17 148.96 40.9 149.04 40.8 149.36 40.38 149.66 40.02 149.69 39.99 150.06 39.58 150.34 39.09 150.55 38.73 150.78 38.42 151.15 38 151.5 37.46 152.32 36.27 153.03 35.17 153.1 35.08 153.27 34.84 153.36 34.71 153.76 34.18 154.22 33.5 155.12 32.24 155.74 31.26 157.05 29.27 158.04 27.79 158.95 26.33 159.11 26.09 159.35 25.71 159.94 24.76 160.48 23.97 161.06 23.17 161.47 22.55 161.91 21.9 162.22 21.38 162.49 20.97 162.96 20.35 164.07 18.61 164.34 18.13 164.65 17.78 165.16 16.89 165.92 15.62 166.47 14.76 166.47 14.75 167.48 15.27 168.36 16 169.47 16.88 170.47 17.78 172.22 19.21 173.18 19.96 174.12 20.83 174.85 21.4 175.7 22.08 176.85 23.03 178.21 24.12 179.74 25.4 181.1 26.49 182.05 27.23 183.33 28.3 184.62 29.43 185.87 30.41 186.83 31.22 188.01 32.24 189.12 33.22 190.38 34.32 191.15 34.81 191.59 35.11 191.93 35.35 192.39 35.84 193.15 36.53 194.45 37.53 194.77 37.82 195.01 38.13 195.21 38.53 195.35 38.72 195.62 38.92 196.16 39.39 196.58 39.7 196.82 39.88 196.98 40.14 197.19 40.33 197.5 40.6 198.21 41.12 199.07 41.7 199.88 42.22 200.41 42.71 200.73 42.96 201.75 43.76 202.08 44.06 202.23 44.47 202.27 44.9 202.2 45.24 202.03 45.8 201.87 46.49 201.74 47.06 201.7 47.45 201.69 47.84 201.56 48.28 201.3 48.84 200.96 49.26 200.51 49.78 200.32 49.97 199.78 50.35 199.25 50.8 198.64 51.36 198.34 51.65 198.26 51.88"/><text class="cls-2" transform="translate(91.19 156.48)"><tspan class="cls-4" x="0" y="0">K</tspan><tspan x="8.58" y="0">han </tspan><tspan class="cls-5" x="33.27" y="0">Y</tspan><tspan x="40.39" y="0">ounis</tspan></text><text class="cls-1" transform="translate(58.69 174.44)"><tspan x="0" y="0">Gaza</tspan><tspan x="0" y="17">Strip</tspan></text><circle class="cls-3" cx="78.96" cy="151.49" r="5"/></svg>