<?xml version="1.0" encoding="UTF-8"?><svg id="graphic" xmlns="http://www.w3.org/2000/svg" viewBox="0 0 300 250.64"><defs><style>.cls-1{font-family:TS3TextSans-Bold, 'TS3 Text Sans';font-size:13px;font-weight:700;}.cls-1,.cls-2{fill:#333;}.cls-3{fill:none;stroke:#f3c100;stroke-miterlimit:10;stroke-width:2px;}.cls-2,.cls-4{stroke-width:0px;}.cls-4{fill:#fff;}</style></defs><polygon class="cls-4" points="198.26 63.59 198.18 64.1 198.18 64.35 198.08 64.71 197.87 64.98 197.48 65.32 197.02 65.68 196.48 66.11 196.23 66.46 196.05 66.94 195.98 67.34 196.1 67.74 196.23 68.14 196.23 68.44 196.03 68.65 195.85 68.87 195.63 69.11 195.38 69.27 195.08 69.35 194.69 69.43 194.53 69.43 194.25 69.49 194.09 69.65 193.48 70.44 192.93 71.13 192.61 71.58 192.4 71.71 192.15 71.76 191.8 71.86 191.07 72.18 190.23 72.53 189.12 72.96 188 73.45 187.28 73.91 186.84 74.17 185.85 74.6 185.3 74.83 185.09 74.96 184.68 75.2 184.34 75.46 183.84 75.85 183.43 76.23 183.02 76.6 182.69 76.87 182.32 77.06 181.97 77.19 181.3 77.33 180.47 77.5 179.63 77.64 178.49 77.83 177.66 78.02 177.09 78.13 176.68 78.24 176.31 78.43 175.78 78.75 175.63 78.87 175.42 79.05 175.03 79.37 174.59 79.71 174.16 80.07 173.1 81.07 172.32 81.76 171.26 82.67 169.87 83.83 169.02 84.62 167.55 85.89 166.86 86.6 166.37 87.17 165.88 87.82 165.34 88.26 164.21 89.3 163.78 89.64 163.42 89.8 162.71 90.16 161.93 90.58 161.4 90.44 160.92 90.38 160.4 90.65 160.17 90.92 160.11 91.43 159.8 92.04 159.47 92.55 159.1 92.98 158.78 93.62 158.51 94.09 158.09 94.79 156.8 96.38 156.3 96.87 155.76 97.35 155.44 97.8 155.19 98.16 154.84 98.75 154.69 99.12 154.52 99.56 154.29 99.85 153.91 100.17 153.23 100.84 152.32 101.7 151.45 102.59 150.24 103.82 149.71 104.37 148.82 105.05 148.61 105.29 148.48 105.56 148.36 105.86 148.18 106.15 147.78 106.59 147.1 107.42 146.38 108.31 145.71 109.06 145.44 109.36 145.3 109.46 145.14 109.52 144.93 109.59 144.74 109.64 144.45 109.74 144.06 109.84 143.51 109.97 143.24 110.07 142.97 110.22 142.51 110.55 142.09 110.83 141.4 111.25 141.19 111.46 141.04 111.65 140.84 111.96 140.74 112.25 140.62 112.47 140.46 112.65 140.14 113.08 139.75 113.62 139.51 113.96 139.33 114.27 139.22 114.54 139.04 115.05 138.98 115.31 138.91 115.5 138.81 115.67 138.64 115.83 138.37 116.08 138.04 116.45 137.66 116.9 137.37 117.24 137.2 117.49 136.95 117.79 136.76 118.09 136.54 118.34 136.38 118.53 136.25 118.66 136.06 118.7 136 118.7 135.75 118.73 135.47 118.81 135.19 118.94 135.03 119.06 134.79 119.37 134.67 119.6 134.58 119.77 134.49 119.92 134.32 120.12 134.19 120.17 134.06 120.25 133.88 120.31 133.67 120.41 133.46 120.58 133.28 120.74 133.01 121.09 132.71 121.31 132.3 121.59 131.84 121.93 131.41 122.2 131.08 122.45 130.64 122.86 130.28 123.18 130.18 123.41 130.17 123.65 130.15 123.95 130.02 124.03 129.88 124.11 129.74 124.19 129.61 124.34 129.49 124.5 129.33 124.73 129.16 124.8 128.9 124.8 128.64 124.83 128.34 124.92 128.11 125.04 127.97 125.17 127.9 125.28 127.85 125.43 127.78 125.61 127.68 125.73 127.57 125.8 127.42 125.86 127.27 126.02 127.18 126.17 127.14 126.35 127 126.52 126.79 126.58 126.65 126.6 126.64 126.6 126.43 126.54 126.19 126.45 126.19 126.45 126.02 126.55 125.76 126.72 125.44 126.93 124.96 127.2 124.75 127.32 124.66 127.44 124.64 127.63 124.6 127.85 124.49 128.08 124.34 128.27 124.1 128.55 123.8 128.92 123.42 129.36 123.16 129.73 123.04 129.93 122.86 130.11 122.67 130.17 122.46 130.25 122.2 130.42 121.89 130.67 121.68 130.84 121.54 131.07 121.45 131.31 121.39 131.55 121.29 131.89 121.11 132.3 120.9 132.72 120.71 133.08 120.51 133.38 120.27 133.65 120.04 133.89 119.83 134.11 119.62 134.29 119.37 134.51 119.17 134.66 118.97 134.82 118.82 135.02 118.69 135.25 118.56 135.49 118.44 135.61 118.25 135.72 118 135.86 117.76 135.96 117.64 136.07 117.5 136.24 117.29 136.47 117.1 136.74 116.93 136.95 116.71 137.18 116.35 137.51 115.82 137.95 115.4 138.39 114.85 138.96 114.72 139.17 114.71 139.32 114.76 139.43 114.93 139.7 115 139.88 114.92 140.07 114.83 140.15 114.72 140.24 114.57 140.42 114.49 140.53 114.46 140.69 114.43 140.96 114.34 141.25 114.2 141.33 114.03 141.4 113.87 141.53 113.76 141.68 113.6 141.92 113.4 142.28 113.1 142.77 112.79 143.23 112.41 143.86 112.1 144.39 111.85 144.93 111.77 145.06 111.76 145.25 111.77 145.53 111.86 145.79 111.82 145.97 111.58 146.15 111.48 146.29 111.46 146.48 111.46 146.73 111.54 147.05 111.61 147.43 111.45 147.64 111.29 147.87 111.05 148.1 110.91 148.26 110.61 148.55 110.65 148.67 110.83 149.11 110.87 149.38 110.8 149.64 110.73 149.81 110.63 149.95 110.41 150.09 110.15 150.21 109.93 150.31 109.74 150.33 109.73 150.32 109.58 150.29 109.35 150.14 109.14 150.02 109.13 150.02 108.95 149.99 108.78 150.04 108.62 150.14 108.45 150.41 108.31 150.66 108.23 150.95 108.16 151.27 108.11 151.58 108.08 151.81 108.02 152.1 107.86 152.42 107.73 153.08 107.64 153.74 107.61 154.14 107.58 154.41 107.64 154.92 107.79 155.78 107.89 156.67 108.04 157.61 108.16 158.61 108.24 159.74 108.29 160.63 108.58 162.96 108.69 164.43 108.83 165.25 109.06 166.65 109.17 167.39 109.32 168.39 109.59 170.02 109.88 171.9 110.17 173.96 110.24 174.79 110.39 176.22 110.69 177.69 110.83 178.99 110.97 179.91 111.12 181.6 111.26 182.52 111.48 184.14 111.52 184.94 111.38 185.5 111.22 186.06 110.98 186.58 110.81 187.14 110.66 187.49 110.59 187.88 110.25 188.53 110.06 189.24 109.83 190.12 109.18 191.81 108.4 193.26 108.15 193.6 107.29 194.09 106.09 194.64 105.21 195.22 104.73 195.55 104.21 195.84 103.17 196.45 102.43 196.84 99.49 198.58 98.11 199.4 97.08 199.93 96.94 200.32 96.76 200.8 96.51 201.46 96.33 201.8 96 202.32 95.67 202.9 95.28 203.59 94.74 204.63 94.39 205.29 94.11 205.83 93.76 206.25 93.35 206.83 92.88 207.39 92.41 208.07 92.03 208.53 91.6 209.07 91.3 209.36 91.19 209.49 90.62 210.02 90.21 210.42 89.79 210.82 89.16 211.38 88.59 211.78 88.07 212.24 87.6 212.64 87.03 213.14 86.13 213.88 85.31 214.37 84.88 214.59 84.25 214.88 83.38 215.26 82.49 215.68 81.48 216.01 80.77 216.35 79.92 216.92 79.07 217.5 76.86 218.64 75.32 219.43 73.83 220.16 73.25 220.66 72.92 220.99 72.1 221.96 71.46 222.87 70.57 223.94 70.05 224.6 69.18 225.41 68.44 226.17 67.87 226.85 67.57 226.99 65.94 228.21 65.59 228.48 64.72 229.3 62.84 231.03 61.77 231.9 61.38 230.9 61.08 229.49 61.07 229.49 60.95 229.16 60.66 228.22 60.21 226.7 59.52 224.6 58.91 222.64 58.19 220.05 57.76 218.91 57.37 217.64 57.18 216.92 56.01 213.35 55.61 211.96 54.97 209.78 53.85 206.13 52.25 200.81 52.17 200.35 51.16 197.22 50.13 194.03 49.47 192.09 49.22 191.11 48.99 190.41 48.78 190.18 48.62 190.13 48.61 190.13 48.05 190.11 46.99 189.99 46.99 189.98 46.81 189.83 45.83 187.85 45.52 187.15 43.97 184.1 42.73 181.88 41.41 179.24 40.05 176.92 38.96 175.13 39.23 174.9 39.42 174.74 39.54 174.67 40.05 174.19 40.55 173.69 41.06 173.21 41.65 172.67 42.07 172.25 42.24 172.14 42.42 172.04 42.57 171.88 42.7 171.7 42.87 171.52 43.15 171.3 43.49 170.98 43.82 170.71 44.13 170.43 44.37 170.14 44.52 169.93 44.87 169.61 45.43 169.03 45.86 168.56 46.25 168.17 46.61 167.82 46.89 167.55 47.19 167.33 47.51 167.06 47.71 166.81 48.01 166.51 48.42 166.1 48.85 165.67 49.43 165.06 49.91 164.58 50.24 164.28 50.62 163.86 50.85 163.65 51.06 163.39 51.58 162.94 51.79 162.72 51.91 162.6 52.22 162.29 52.43 162.04 52.66 161.85 53.24 161.4 53.78 160.83 54.56 160.05 55.51 159.13 56.48 157.98 57.53 156.94 58.33 156.19 58.86 155.57 59.65 154.75 60.2 154.13 60.42 153.94 60.67 153.72 60.89 153.56 61.16 153.37 61.46 153.13 61.85 152.76 62.09 152.47 62.34 152.23 62.81 151.74 63.02 151.49 63.27 151.3 63.8 150.81 64.19 150.43 64.48 150.12 64.76 149.8 65.27 149.36 65.92 148.73 66.16 148.48 66.56 147.84 67.21 146.99 67.68 146.42 68.16 145.86 68.72 145.24 69.65 143.98 70.05 143.54 70.29 143.2 70.56 142.83 70.77 142.63 71.07 142.44 71.42 142.12 71.83 141.79 72.15 141.52 72.55 141.16 72.67 140.94 72.87 140.71 73.21 140.41 73.62 139.96 74.06 139.45 74.3 139.22 74.43 139.03 74.58 138.83 74.98 138.48 75.28 138.18 75.56 137.91 75.73 137.69 75.91 137.53 76.1 137.34 76.27 137.13 76.31 137.07 76.39 136.92 76.52 136.74 76.76 136.49 77 136.3 77.33 136.06 77.78 135.69 78.16 135.36 78.46 135.12 78.63 134.99 78.86 134.83 79.13 134.61 79.53 134.35 79.89 134.12 80.19 133.89 80.45 133.61 80.98 133.11 81.27 132.78 81.66 132.39 82.07 131.97 82.53 131.46 83.26 130.7 83.99 129.86 84.63 129.15 85.25 128.54 86.33 127.69 87.04 126.97 87.61 126.45 88.23 125.82 88.83 125.18 89.55 124.46 90.13 123.89 90.43 123.58 90.74 123.31 91.06 123.05 91.4 122.75 91.77 122.29 92.18 121.84 92.62 121.35 93.48 120.44 94.01 119.94 94.51 119.39 94.68 119.19 94.83 118.91 94.98 118.75 95.22 118.55 95.51 118.22 96.08 117.6 96.67 116.93 97.25 116.31 97.65 115.85 98 115.4 98.44 114.87 98.87 114.41 99.32 113.87 99.55 113.53 99.94 113.06 100.42 112.49 100.96 111.94 101.27 111.59 101.4 111.3 102.08 110.43 102.48 109.98 102.93 109.44 103.6 108.68 104.66 107.34 105.46 106.38 105.99 105.82 106.39 105.42 106.5 105.17 106.68 104.95 106.98 104.62 107.18 104.32 107.47 103.99 107.74 103.67 108.27 102.98 108.62 102.45 109.16 101.73 109.59 101.22 109.9 100.83 110.11 100.59 110.38 100.34 110.62 100.15 110.93 99.85 111.27 99.46 111.77 98.87 112.32 98.2 112.79 97.74 113.09 97.31 113.24 97.09 113.59 96.6 114.02 96.11 114.6 95.42 115.23 94.62 115.79 94.01 116.71 92.89 117.19 92.34 117.42 92 117.7 91.56 118.35 90.84 118.88 90.15 119.3 89.63 119.65 89.25 120.39 88.39 120.91 87.67 121.57 86.93 122.1 86.25 122.7 85.56 123.58 84.49 124.23 83.64 124.73 83.05 125.39 82.28 125.97 81.65 126.22 81.37 126.7 80.91 127.29 80.35 127.86 79.67 128.2 79.25 128.57 78.84 128.96 78.27 129.29 77.86 129.82 77.29 130.23 76.76 130.74 76.09 131.46 75.2 132.21 74.36 132.65 73.68 133.27 72.85 133.7 72.2 134.28 71.66 134.48 71.4 134.66 71.22 134.78 71.07 134.83 70.8 135.23 70.32 135.76 69.53 136.38 68.7 136.75 68.18 136.96 67.76 137.3 67.24 137.54 66.78 137.71 66.54 137.85 66.25 137.85 65.99 137.72 65.8 137.49 65.59 137.33 65.36 137.32 65.36 137.14 65.24 137 65.15 136.77 64.89 136.66 64.66 136.57 64.3 136.72 64.12 136.8 64.03 137.06 63.64 137.12 63.55 137.16 63.32 137.24 63.19 137.33 63.16 137.39 63.14 137.59 62.91 137.83 62.63 138.08 62.43 138.17 62.53 137.92 62.85 137.57 63.24 137.37 63.43 137.28 63.5 137.28 63.5 137.24 63.73 137.24 63.73 137.07 63.99 137.07 63.99 136.84 64.26 136.8 64.31 136.79 64.52 136.9 64.81 137.09 65.02 137.09 65.02 137.44 65.28 137.45 65.28 137.69 65.16 137.7 65.16 137.96 65.33 138.26 65.5 138.58 65.54 138.59 65.54 138.77 65.47 138.8 65.25 138.8 65.09 138.98 65.03 139.2 64.92 139.45 64.74 139.74 64.58 139.83 64.43 139.83 64.43 139.73 64.3 139.72 64.28 139.65 64.19 139.34 63.93 139.09 63.73 138.79 63.5 138.77 63.49 138.64 63.29 138.59 63.22 138.66 63.17 138.89 63.39 138.89 63.39 139.05 63.55 139.14 63.61 139.28 63.7 139.51 63.92 139.67 63.95 140.18 63.73 140.38 63.62 140.53 63.47 140.53 63.47 140.66 63.42 140.99 62.89 141.86 61.73 142.16 61.29 142.29 61.1 142.64 60.75 143.21 60.04 143.8 59.15 144.58 58.21 145.57 57.01 146.51 55.74 146.94 55.32 147.17 55.09 147.35 54.89 147.47 54.76 147.96 54.04 148.46 53.38 148.53 53.25 148.62 53.08 148.74 52.89 148.96 52.61 149.04 52.51 149.36 52.09 149.66 51.74 149.69 51.7 150.06 51.3 150.34 50.81 150.55 50.45 150.78 50.13 151.15 49.71 151.5 49.18 152.32 47.98 153.03 46.89 153.1 46.79 153.27 46.55 153.36 46.42 153.76 45.89 154.22 45.21 155.12 43.96 155.74 42.98 157.05 40.98 158.04 39.5 158.95 38.05 159.11 37.8 159.35 37.43 159.94 36.47 160.48 35.68 161.06 34.89 161.47 34.27 161.91 33.62 162.22 33.1 162.49 32.68 162.96 32.06 164.07 30.32 164.34 29.84 164.65 29.5 165.16 28.6 165.92 27.33 166.47 26.47 166.47 26.47 167.48 26.98 168.36 27.71 169.47 28.59 170.47 29.49 172.22 30.93 173.18 31.67 174.12 32.54 174.85 33.11 175.7 33.79 176.85 34.75 178.21 35.83 179.74 37.11 181.1 38.2 182.05 38.95 183.33 40.02 184.62 41.14 185.87 42.12 186.83 42.94 188.01 43.95 189.12 44.93 190.38 46.03 191.15 46.53 191.59 46.82 191.93 47.06 192.39 47.55 193.15 48.25 194.45 49.24 194.77 49.53 195.01 49.84 195.21 50.24 195.35 50.43 195.62 50.63 196.16 51.1 196.58 51.41 196.82 51.59 196.98 51.85 197.19 52.04 197.5 52.31 198.21 52.84 199.07 53.42 199.88 53.93 200.41 54.42 200.73 54.67 201.75 55.47 202.08 55.78 202.23 56.19 202.27 56.62 202.2 56.96 202.03 57.52 201.87 58.21 201.74 58.78 201.7 59.16 201.69 59.55 201.56 59.99 201.3 60.55 200.96 60.97 200.51 61.5 200.32 61.69 199.78 62.06 199.25 62.51 198.64 63.07 198.34 63.37 198.26 63.59"/><text class="cls-1" transform="translate(144.13 67.53)"><tspan x="0" y="0">Gaza City</tspan></text><text class="cls-1" transform="translate(60.46 180.11)"><tspan x="0" y="0">Gaza </tspan><tspan x="0" y="17">Strip</tspan></text><rect class="cls-3" x="127.07" y="9.3" width="97.06" height="97.06"/><circle class="cls-2" cx="157.2" cy="75.23" r="2.5"/></svg>